<?xml version="1.0" encoding="UTF-8"?>
<svg id="Layer_1" xmlns="http://www.w3.org/2000/svg" version="1.1" xmlns:xlink="http://www.w3.org/1999/xlink" viewBox="0 0 708.8 148.6">
  <!-- Generator: Adobe Illustrator 29.5.1, SVG Export Plug-In . SVG Version: 2.1.0 Build 141)  -->
  <defs>
    <style>
      .st0 {
        fill: url(#linear-gradient1);
      }

      .st1 {
        fill: #c58821;
      }

      .st2 {
        fill: url(#linear-gradient);
      }
    </style>
    <linearGradient id="linear-gradient" x1="-89.5" y1="-295" x2="-88.4" y2="-294.2" gradientTransform="translate(7957.2 25991.8) scale(88.6 88)" gradientUnits="userSpaceOnUse">
      <stop offset="0" stop-color="#ffe842"/>
      <stop offset="1" stop-color="#fdc100"/>
    </linearGradient>
    <linearGradient id="linear-gradient1" x1="-89.6" y1="-295.2" x2="-88.6" y2="-294.2" gradientTransform="translate(8446.8 27110.6) scale(94.1 91.7)" gradientUnits="userSpaceOnUse">
      <stop offset="0" stop-color="#c58821"/>
      <stop offset="1" stop-color="#9b6c1b"/>
    </linearGradient>
  </defs>
  <path d="M227.1,63.9c0,5.5-1.5,10.1-4.3,13.2-2.3,2.6-5.5,4.2-9,4.2h-9.5s0,0-.1,0,0,0,0-.1v-5.8s0,0,0-.1,0,0,.1,0h6.6c4,0,6.2-4.1,6.2-11.4s-2.2-11.4-6.2-11.4h-11s0,0,0,0v49.5c0,0,0,.2-.2.2h-9.6c-.1,0-.2,0-.2-.2v-55.5s0,0,0-.1c0,0,0,0,.1,0h23.8c8.1,0,13.3,6.9,13.3,17.5h0ZM242.8,46.3h-9.6s0,0-.1,0c0,0,0,0,0,.1v55.6c0,0,0,.2.2.2h9.6c.1,0,.2,0,.2-.2v-55.6c0,0,0-.2-.2-.2h0ZM284.6,59.7h-17.2c-15.4,0-17.4,11.3-17.4,21.2v8.6c0,7.4,4.6,12.8,10.9,12.8h9.3c0,0,.2,0,.2-.2v-5.8c0,0,0-.2-.2-.2h-6.7c-1.5,0-3.6-.7-3.6-6v-9.3c0-6.2.6-10.1,1.8-12.3,1.4-2.5,3.6-2.8,5.5-2.8h7.3s0,0,0,0v36.2c0,0,0,.2.2.2h9.6c.1,0,.2,0,.2-.2v-42.2c0,0,0-.2-.1-.2h0ZM354.2,69.6l-4.7-.4c-3.5-.3-6.2-2.3-6.2-8.1s3-8.7,7.1-8.7h13.1c.1,0,.2,0,.2-.2v-5.8c0,0,0-.2-.2-.2h-14.5c-9,0-15.3,5.3-15.3,15.8v.5c0,8.3,5.1,14.3,12.7,14.8l4.7.3c3.6.3,5.9,3.5,5.9,8.4v1.4c0,3.1-.8,8.7-7.3,8.7h-13.7c-.1,0-.2,0-.2.2v5.8c0,0,0,.2.2.2h16.9c5.2,0,14-2.1,14-16.3s-1.2-9.2-3.5-12.2c-2-2.5-5-3.9-9.1-4.2h0ZM432.9,59.7h-17.2c-15.4,0-17.4,11.3-17.4,21.2v8.6c0,7.4,4.6,12.8,10.9,12.8h9.3c.1,0,.2,0,.2-.2v-5.8c0,0,0-.2-.2-.2h-6.7c-1.5,0-3.6-.7-3.6-6v-9.3c0-6.2.6-10.1,1.8-12.3,1.4-2.5,3.6-2.8,5.5-2.8h7.4s0,0,0,0v36.2c0,0,0,.2.2.2h9.6c0,0,.2,0,.2-.2v-42.2c0,0,0-.2-.2-.2h0ZM394.4,59.7h-10.4s0,0,0,0v-7c0,0,0-.2-.2-.2h-9.6c0,0-.2,0-.2.2v36.9c0,7.4,4.6,12.8,11,12.8h6.9c0,0,.2,0,.2-.2v-5.8c0,0,0-.2-.2-.2h-4.2c-1,0-3.6,0-3.6-5.5v-24.8s0,0,0,0h10.5c0,0,.2,0,.2-.2v-5.7c0,0,0-.2-.2-.2h0,0ZM461.6,59.7h-10.4s0,0,0,0v-7s0,0,0-.1,0,0-.1,0h-9.6s0,0-.1,0c0,0,0,0,0,.1v36.9c0,7.4,4.6,12.8,10.9,12.8h6.9s0,0,.1,0c0,0,0,0,0-.1v-5.8s0,0,0-.1c0,0,0,0-.1,0h-4.3c-1.1,0-3.6,0-3.6-5.5v-24.8s0,0,0,0h10.4c0,0,.2,0,.2-.2v-5.7c0,0,0-.2-.2-.2h0ZM477.5,59.7h-9.6c0,0-.2,0-.2.2v42.2c0,0,0,.2.2.2h9.6c.1,0,.2,0,.2-.2v-42.2c0,0,0-.2-.2-.2,0,0,0,0,0,0ZM477.5,46.3h-9.6c0,0-.2,0-.2.2v8.1c0,0,0,.2.2.2h9.6s0,0,.1,0,0,0,0-.1v-8.1c0,0,0-.2-.2-.2h0,0ZM544.1,59.7h-17.2c0,0-.2,0-.2.2v42.2c0,0,0,.2.2.2h9.6c0,0,.2,0,.2-.2v-36.2s0,0,0,0c0,0,0,0,0,0h7.3c2,0,4.1.3,5.5,2.6,1.3,2.1,1.8,5.7,1.8,11.4v22.3c0,0,0,.2.2.2h9.6c0,0,.2,0,.2-.2v-21.1c0-9.9-2-21.2-17.3-21.2h0ZM520.4,81c0,9.9-2.1,21.3-18.1,21.3s-18.1-11.4-18.1-21.3,2.1-21.3,18.1-21.3,18.2,11.4,18.2,21.3h0ZM510.4,81c0-7.3-.9-11.5-2.9-13.5-1.2-1.2-2.8-1.7-5.2-1.7s-4,.5-5.2,1.7c-2.1,2-2.9,6.1-2.9,13.5h0c0,6.2.6,10.1,2.1,12.4,1.5,2.5,4,2.8,6.1,2.8s4.6-.3,6.1-2.8c1.3-2.3,1.9-6.2,1.9-12.4h0ZM330.1,59.7h-9.1c-.1,0-.2,0-.2.2l-10.6,27.5c0,0,0,0-.1,0l-9.4-27.5c0,0-.1-.2-.2-.2h-10.1s0,0-.1,0c0,0,0,0,0,.1l14.3,41.9c0,.1,0,.2,0,.3l-8,20.7c0,0,0,.2.1.2h8.4c.1,0,.2,0,.2-.2l25.1-62.9c0-.2,0-.2-.2-.2h0ZM567.7,97.6c0,2.6,2.1,4.7,4.7,4.7s4.7-2.1,4.7-4.7c0-2.6-2.1-4.7-4.6-4.7-1.2,0-2.5.4-3.3,1.3s-1.4,2.1-1.3,3.3h0ZM568.4,97.6c0-2.2,1.8-3.9,4-3.9,2.2,0,3.9,1.8,3.9,3.9,0,2.2-1.8,3.9-3.9,3.9-1.1,0-2.1-.4-2.8-1.1-.8-.8-1.2-1.8-1.1-2.8h0ZM570.5,100.3h1v-2.3h.6c.8,0,1,.2,1.1.8.1.4.3,1,.4,1.5h1c-.2-.5-.3-1-.5-1.7-.2-.7-.4-.9-.8-1h0c.6,0,1.1-.7,1-1.3,0-1.1-.7-1.4-1.7-1.4h-2.2v5.4s0,0,0,0ZM571.5,95.6h.9c.5,0,1,.1,1,.8s-.4.9-1.1.9h-.9s0-1.7,0-1.7ZM583.2,102.3h6.9v-23.6h11.6c9.9,0,18.5-4.4,18.5-16.8s-8.6-15.9-18.6-15.9h-18.4v56.3s0,0,0,0ZM590.1,51.7h10.2c7.2,0,13,1.7,13,10.4s-5.8,10.8-12.3,10.8h-10.9s0-21.2,0-21.2ZM625.5,44.3v57.9h6.7v-57.9h-6.7ZM674.2,102.3v-41.6h-6.7v23.6c0,9.7-5.7,13.7-11.3,13.7s-9.8-4.7-9.8-12.4v-24.8h-6.7v27.4c0,9.1,5.5,15.1,14.9,15.1s10.6-2.7,13.1-7.1h0v6.2h6.5ZM706.8,62c-3.1-1.6-7.5-2.3-11.9-2.3-6.9,0-14.3,3.6-14.3,11.7s4.3,9.4,11.7,12.1c6.5,2.4,10.1,4.5,10.1,8.3s-3.6,6.1-8.5,6.1c-4.3-.2-8.5-1.2-12.4-3l-1.7,5.3c4.4,2,9.1,3,14,3,7.4,0,15.2-2.9,15.2-11.7s-5.2-10-13-12.9c-6.6-2.4-8.8-4.3-8.8-7.8s4.1-5.8,7.9-5.8c3.6,0,7.1.6,10.4,2.1l1.6-5.1h0ZM119.1,125.2h-1.9v-.6h4.4v.6h-1.8v5.6h-.8v-5.6ZM125.5,130.1h0l1.8-5.5h1.3v6.2h-.7v-5.6h0l-1.9,5.6h-.9l-1.8-5.6h0v5.6h-.7v-6.2h1.3l1.7,5.5h0Z"/>
  <path class="st2" d="M146.6,76.2l-4.7-34.2c-.2-1.3-.8-2.4-1.9-3.2-1-.8-2.3-1.1-3.6-.9l-39.3,5.4-5.3-39c-.2-1.3-.8-2.4-1.9-3.2-1-.8-2.3-1.1-3.6-.9l-34.5,4.7c-.7,0-1.3.3-1.8.6-.5.3-1,.7-1.4,1.2-.4.5-.7,1.1-.8,1.7-.2.6-.2,1.3-.1,1.9l5.3,39-39.3,5.4c-.6,0-1.3.3-1.8.6-.5.3-1,.7-1.4,1.2-.8,1-1.1,2.3-.9,3.6l4.7,34.2c.2,1.3.9,2.4,1.9,3.2,1,.8,2.3,1.1,3.6.9l39.3-5.4,5.3,39c.2,1.3.8,2.4,1.9,3.2,1,.8,2.3,1.1,3.6.9l34.4-4.7c1.3-.2,2.4-.9,3.2-1.9.8-1,1.1-2.3.9-3.6l-5.3-39,39.3-5.4c.6,0,1.3-.3,1.8-.6.5-.3,1-.7,1.4-1.2.4-.5.6-1.1.8-1.7.2-.6.2-1.3.1-1.9h0Z"/>
  <path class="st1" d="M119.4,47c-6.1.8-11.2,5.3-12.7,11.3-1.6,6,.6,12.3,5.5,16.1s11.6,4.2,17,1c5.4-3.1,8.3-9.2,7.4-15.3-.6-4-2.7-7.7-5.9-10.1-3.2-2.5-7.3-3.5-11.3-3h0ZM122.9,72.2c-4.1.6-8.1-1.4-10.2-4.9-2.1-3.5-1.8-8,.7-11.3s6.7-4.7,10.7-3.7,6.9,4.4,7.5,8.5c.8,5.5-3.1,10.7-8.7,11.4h0ZM69.5,8.9l-12.5,31.4,33.8-4.6s-21.2-26.8-21.2-26.8ZM65.1,34l6-15,10.2,12.8-16.1,2.2h0ZM18.2,62.2l3.8,27.6,27.6-3.8-3.8-27.6s-27.6,3.8-27.6,3.8ZM26.4,84.1l-2.4-17.4,17.5-2.4,2.4,17.4-17.5,2.4ZM87.6,111.4l12,9.1-3.1,4.1-12-9.1-9.1,12-4.1-3.1,9.1-12-12-9.1,3.1-4.1,12,9.1,9.1-12,4.1,3.1s-9.1,12-9.1,12Z"/>
  <path class="st0" d="M145.6,79.8l-9.4,12.3c-.8,1-1.9,1.7-3.2,1.9l-28.3,3.9-1.5-10.9,39.3-5.4c.6,0,1.3-.3,1.8-.6.5-.3,1-.7,1.3-1.2h0ZM106.1,130.8c-.6.3-1.2.5-1.8.6l-34.5,4.7c-1.3.2-2.6-.1-3.6-.9s-1.7-1.9-1.9-3.2l-5.3-39-39.3,5.4c-1.3.2-2.6-.2-3.6-.9-1-.8-1.7-1.9-1.9-3.2l-4.7-34.2c-.2-1.3.2-2.6.9-3.6l-9.4,12.3c-.8,1-1.2,2.3-1,3.6l4.7,34.2c.2,1.3.8,2.4,1.9,3.2,1,.8,2.3,1.1,3.6.9l39.3-5.4,5.4,39c.2,1.3.8,2.4,1.9,3.2,1,.8,2.3,1.1,3.6.9l34.5-4.7c1.3-.2,2.4-.8,3.2-1.9l9.4-12.4c-.4.5-.9.9-1.4,1.2h0ZM47.7,10.2c0-.6,0-1.3.1-1.9.2-.6.4-1.2.8-1.7l-9.5,12.3c-.8,1-1.1,2.3-.9,3.6l3.8,28.1,10.9-1.5-5.3-39h0Z"/>
</svg>